<?xml version="1.0" encoding="UTF-8"?>
<svg id="Layer_2" data-name="Layer 2" xmlns="http://www.w3.org/2000/svg" xmlns:xlink="http://www.w3.org/1999/xlink" viewBox="0 0 5000 5000">
  <defs>
    <style>
      .cls-1 {
        fill: url(#linear-gradient);
      }

      .cls-1, .cls-2, .cls-3, .cls-4, .cls-5 {
        stroke-width: 0px;
      }

      .cls-2 {
        fill: none;
      }

      .cls-3 {
        fill: url(#linear-gradient-2);
      }

      .cls-4 {
        fill: url(#linear-gradient-3);
      }

      .cls-6 {
        clip-path: url(#clippath);
      }

      .cls-5 {
        fill: url(#linear-gradient-4);
      }
    </style>
    <linearGradient id="linear-gradient" x1="1963.27" y1="1405.16" x2="4118.25" y2="1405.16" gradientUnits="userSpaceOnUse">
      <stop offset="0" stop-color="#4371b6"/>
      <stop offset=".32" stop-color="#4373b4"/>
      <stop offset=".54" stop-color="#457cb0"/>
      <stop offset=".74" stop-color="#488caa"/>
      <stop offset=".91" stop-color="#4ca1a1"/>
      <stop offset="1" stop-color="#4fb09b"/>
      <stop offset="1" stop-color="#4371b6"/>
    </linearGradient>
    <linearGradient id="linear-gradient-2" x1="0" y1="1959.24" x2="2810.33" y2="1959.24" xlink:href="#linear-gradient"/>
    <linearGradient id="linear-gradient-3" x1="881.75" y1="3594.84" x2="3036.73" y2="3594.84" xlink:href="#linear-gradient"/>
    <linearGradient id="linear-gradient-4" x1="2189.67" y1="3040.76" x2="5000" y2="3040.76" xlink:href="#linear-gradient"/>
    <clipPath id="clippath">
      <path class="cls-2" d="m1961.27-2v2814.33h2158.98V-2H1961.27Zm540.64,2503.02l-1.37.37-5.99-3.46h-.01s-5.97-3.45-5.97-3.45l-.37-.37-.72-1.25,3.88,2.24-300.14-519.86-9.23-15.99-219.72-380.56v-696.93h224.18l1.91,3.3,309.13,535.44,5.53,9.57v1061.24l1.68-.97.75.1-4.36,7.56-1.18,2.04.13.07,2.92-5.05h0s2.65-4.6,2.65-4.6l.3.04.79.78.16,1.21-4.93,8.54Z"/>
    </clipPath>
  </defs>
  <path class="cls-1" d="m4108.01,1565.81l-528.5-305.13v-625.41l-15.1-8.71-523.65-302.33-18.96-10.95L2502.01,13.18l-22.83-13.18-515.92,297.86v1892.17l531.77,307.02h0l6.97,4.03,535.64,309.25,3.1-1.79,526.62-304.05,12.13-7,535.44-309.13,3.3-1.91v-614.72l-10.24-5.91Zm-1067.25,616.17l-15.99,9.23-522.76,301.81V638.59l520.77,300.67,17.97,10.38v618.54l531.58,306.91-531.58,306.91Z"/>
  <path class="cls-3" d="m1565.81,891.99l-305.13,528.5h-625.41s-8.71,15.1-8.71,15.1l-302.33,523.65-10.95,18.96L13.18,2497.99l-13.18,22.83,297.86,515.92h1892.17s307.02-531.77,307.02-531.77h0s4.03-6.97,4.03-6.97l309.25-535.64-1.79-3.1-304.05-526.62-7-12.13-309.13-535.44-1.91-3.3h-614.72s-5.91,10.24-5.91,10.24Zm616.17,1067.25l9.23,15.99,301.81,522.76H638.59s300.67-520.77,300.67-520.77l10.38-17.97h618.54s306.91-531.58,306.91-531.58l306.91,531.58Z"/>
  <path class="cls-4" d="m891.99,3434.19l528.5,305.13v625.41s15.1,8.71,15.1,8.71l523.65,302.33,18.96,10.95,519.78,300.1,22.83,13.18,515.92-297.86v-1892.17s-531.77-307.02-531.77-307.02h0l-6.97-4.03-535.64-309.25-3.1,1.79-526.62,304.05-12.13,7-535.44,309.13-3.3,1.91v614.72s10.24,5.91,10.24,5.91Zm1067.25-616.17l15.99-9.23,522.76-301.81v1854.44s-520.77-300.67-520.77-300.67l-17.97-10.38v-618.54s-531.58-306.91-531.58-306.91l531.58-306.91Z"/>
  <path class="cls-5" d="m3434.19,4108.01l305.13-528.5h625.41s8.71-15.1,8.71-15.1l302.33-523.65,10.95-18.96,300.1-519.78,13.18-22.83-297.86-515.92h-1892.17s-307.02,531.77-307.02,531.77h0s-4.03,6.97-4.03,6.97l-309.25,535.64,1.79,3.1,304.05,526.62,7,12.13,309.13,535.44,1.91,3.3h614.72s5.91-10.24,5.91-10.24Zm-616.17-1067.25l-9.23-15.99-301.81-522.76h1854.44s-300.67,520.77-300.67,520.77l-10.38,17.97h-618.54s-306.91,531.58-306.91,531.58l-306.91-531.58Z"/>
  <g class="cls-6">
    <path class="cls-1" d="m4108.01,1565.81l-528.5-305.13v-625.41l-15.1-8.71-523.65-302.33-18.96-10.95L2502.01,13.18l-22.83-13.18-515.92,297.86v1892.17l531.77,307.02h0l6.97,4.03,535.64,309.25,3.1-1.79,526.62-304.05,12.13-7,535.44-309.13,3.3-1.91v-614.72l-10.24-5.91Zm-1067.25,616.17l-15.99,9.23-522.76,301.81V638.59l520.77,300.67,17.97,10.38v618.54l531.58,306.91-531.58,306.91Z"/>
  </g>
</svg>