<?xml version="1.0" encoding="UTF-8"?>
<svg xmlns="http://www.w3.org/2000/svg" xmlns:xlink="http://www.w3.org/1999/xlink" viewBox="0 0 44.92 58.5">
  <defs>
    <style>
      .cls-1, .cls-2, .cls-3 {
        stroke-width: 0px;
      }

      .cls-2 {
        fill: none;
      }

      .cls-3 {
        fill: #fff;
      }

      .cls-4 {
        clip-path: url(#clippath);
      }
    </style>
    <clipPath id="clippath">
      <path class="cls-2" d="m16.77,12.74v21.99h17.79V12.74h-17.79Zm6.45,16.24l-1.01,1.74h0s0,.01,0,.01l.02-.03.99-1.72v1.71h-.16v.06s-.81,0-.81,0v.02s.77.44.77.44l-1.31.4h0s.47-.81.47-.81h0s-.47.81-.47.81l-.03-.02-.4-.39-.87-1.5,1.75,1.01-1.92-3.33-.06-.1-1.96-3.4-.44.75v-4.25h2.43v.02s1.99,3.43,1.99,3.43l.04.08.98,1.7v3.37Z"/>
    </clipPath>
  </defs>
  <g id="Layer_1" data-name="Layer 1">
    <path class="cls-1" d="m42.27,40.1c.49-.81.84-1.7,1.06-2.63,1.67-3.88,2.05-8.36-.05-12.11-.74-1.32-1.73-2.25-2.86-2.88-.05-.11-.09-.22-.14-.32,1.3-3.53-.48-8.34-5.38-8.34-.32,0-.62.03-.91.07-.47-.26-.99-.45-1.55-.56C28.82,6.94,23.18,1.56,15.73.22,7.32-1.29-.28,5.17,2.29,14.06c.58,1.99,1.84,3.57,3.48,4.72-.03.36-.03.72,0,1.07-2.89.89-4.89,4.03-4.51,6.89C.03,28.92-.4,31.59.43,35.01c.64,2.64,2.83,4.07,5.21,4.26-2.23,3.52-.63,9.47,4.82,9.47.97,0,1.82-.19,2.55-.52.09.03.17.06.26.08-.54,1.32-.93,2.75-1.14,4.34-.8,5.97,8.62,8.08,11.18,3.03,1.86-3.68,5.16-6.03,8.91-6.37.37.61.75,1.21,1.18,1.79,2.96,4.06,9.41,3.85,10.97-1.43,1.31-4.44.24-7.55-2.09-9.55Z"/>
  </g>
  <g id="Layer_2" data-name="Layer 2">
    <g>
      <path class="cls-3" d="m32.49,24.76l-3.38-1.95v-4l-.1-.06-3.35-1.93-.12-.07-3.33-1.92-.15-.08-3.3,1.91v12.11l3.4,1.96h0l.04.03,3.43,1.98h.02s3.37-1.96,3.37-1.96l.08-.04,3.43-1.98h.02v-3.95l-.07-.04Zm-6.83,3.94l-.1.06-3.35,1.93v-11.87l3.33,1.92.12.07v3.96l3.4,1.96-3.4,1.96Z"/>
      <path class="cls-3" d="m16.22,20.45l-1.95,3.38h-4s-.06.1-.06.1l-1.93,3.35-.07.12-1.92,3.33-.08.15,1.91,3.3h12.11s1.96-3.4,1.96-3.4h0s.03-.04.03-.04l1.98-3.43v-.02s-1.96-3.37-1.96-3.37l-.04-.08-1.98-3.43v-.02s-3.95,0-3.95,0l-.04.07Zm3.94,6.83l.06.1,1.93,3.35h-11.87s1.92-3.33,1.92-3.33l.07-.12h3.96s1.96-3.4,1.96-3.4l1.96,3.4Z"/>
      <path class="cls-3" d="m11.91,36.72l3.38,1.95v4s.1.06.1.06l3.35,1.93.12.07,3.33,1.92.15.08,3.3-1.91v-12.11s-3.4-1.96-3.4-1.96h0l-.04-.03-3.43-1.98h-.02s-3.37,1.96-3.37,1.96l-.08.04-3.43,1.98h-.02v3.95s.07.04.07.04Zm6.83-3.94l.1-.06,3.35-1.93v11.87s-3.33-1.92-3.33-1.92l-.12-.07v-3.96s-3.4-1.96-3.4-1.96l3.4-1.96Z"/>
      <path class="cls-3" d="m28.18,41.03l1.95-3.38h4s.06-.1.06-.1l1.93-3.35.07-.12,1.92-3.33.08-.15-1.91-3.3h-12.11s-1.96,3.4-1.96,3.4h0s-.03.04-.03.04l-1.98,3.43v.02s1.96,3.37,1.96,3.37l.04.08,1.98,3.43v.02h3.95s.04-.07.04-.07Zm-3.94-6.83l-.06-.1-1.93-3.35h11.87s-1.92,3.33-1.92,3.33l-.07.12h-3.96s-1.96,3.4-1.96,3.4l-1.96-3.4Z"/>
      <g class="cls-4">
        <path class="cls-3" d="m32.49,24.76l-3.38-1.95v-4l-.1-.06-3.35-1.93-.12-.07-3.33-1.92-.15-.08-3.3,1.91v12.11l3.4,1.96h0l.04.03,3.43,1.98h.02s3.37-1.96,3.37-1.96l.08-.04,3.43-1.98h.02v-3.95l-.07-.04Zm-6.83,3.94l-.1.06-3.35,1.93v-11.87l3.33,1.92.12.07v3.96l3.4,1.96-3.4,1.96Z"/>
      </g>
    </g>
  </g>
</svg>